<?xml version="1.0" standalone="no"?>
<!DOCTYPE svg PUBLIC "-//W3C//DTD SVG 20010904//EN"
 "http://www.w3.org/TR/2001/REC-SVG-20010904/DTD/svg10.dtd">
<svg version="1.0" xmlns="http://www.w3.org/2000/svg"
 width="200.000000pt" height="200.000000pt" viewBox="0 0 200.000000 200.000000"
 preserveAspectRatio="xMidYMid meet">

<g transform="translate(0.000000,200.000000) scale(0.100000,-0.100000)"
fill="#000000" stroke="none">
<path d="M307 1989 c-111 -26 -210 -108 -264 -217 l-38 -76 -3 -848 -3 -849
848 3 848 3 65 31 c95 46 153 101 197 192 l38 76 3 848 3 848 -828 -1 c-456
-1 -845 -5 -866 -10z m522 -821 c58 -28 112 -82 142 -144 33 -69 33 -179 0
-248 -31 -63 -84 -116 -147 -147 -69 -33 -179 -33 -248 0 -299 146 -181 593
148 566 33 -3 80 -15 105 -27z m562 -96 c43 -22 59 -38 81 -81 33 -62 35 -110
9 -166 -24 -53 -55 -83 -105 -106 -58 -26 -105 -24 -167 9 -43 22 -59 38 -81
81 -36 68 -36 114 0 182 22 43 38 59 81 81 68 36 114 36 182 0z m-26 -633 c4
-17 3 -35 -1 -39 -5 -4 -152 -46 -326 -92 l-317 -84 -9 38 c-9 36 -9 38 17 45
14 3 154 41 311 84 157 42 293 77 302 78 11 1 19 -10 23 -30z"/>
<path d="M610 1078 c-99 -53 -138 -173 -88 -268 53 -99 173 -138 268 -88 99
53 138 173 88 268 -53 99 -173 138 -268 88z"/>
<path d="M1231 969 c-82 -82 14 -208 118 -155 15 8 32 26 39 41 47 104 -77
194 -157 114z"/>
</g>
</svg>
